<?xml version="1.0" encoding="utf-8"?>
<!-- Generator: Adobe Illustrator 21.0.2, SVG Export Plug-In . SVG Version: 6.00 Build 0)  -->
<svg version="1.1" id="Calque_1" xmlns="http://www.w3.org/2000/svg" xmlns:xlink="http://www.w3.org/1999/xlink" x="0px" y="0px"
	 viewBox="0 0 376 357.6" style="enable-background:new 0 0 376 357.6;" xml:space="preserve">
<style type="text/css">
	.st0{fill:#F2EEE9;}
	.st1{fill:#77ABB7;}
	.st2{fill:#1D3E53;}
	.st3{fill:#04536C;}
	.st4{fill:#388186;}
</style>
<path class="st0" d="M334.9,322.4h-279c-6.6,0-12-5.4-12-12v-272c0-6.6,5.4-12,12-12h279c6.6,0,12,5.4,12,12v272
	C346.9,317,341.5,322.4,334.9,322.4z"/>
<rect x="138.8" y="122.5" class="st1" width="32.5" height="29.5"/>
<rect x="61.3" y="158.5" class="st1" width="32.5" height="29.5"/>
<rect x="178.3" y="122.5" class="st1" width="32.5" height="29.5"/>
<rect x="218.3" y="122.5" class="st1" width="32.5" height="29.5"/>
<rect x="257.8" y="122.5" class="st1" width="32.5" height="29.5"/>
<rect x="297.3" y="122.5" class="st1" width="32.5" height="29.5"/>
<rect x="100" y="158.5" class="st1" width="32.5" height="29.5"/>
<rect x="139.5" y="158.5" class="st1" width="32.5" height="29.5"/>
<rect x="179.5" y="158.5" class="st1" width="32.5" height="29.5"/>
<rect x="219" y="158.5" class="st2" width="32.5" height="29.5"/>
<rect x="258.5" y="158.5" class="st2" width="32.5" height="29.5"/>
<rect x="297.3" y="158.5" class="st2" width="32.5" height="29.5"/>
<rect x="60.3" y="193.5" class="st1" width="32.5" height="29.5"/>
<rect x="99" y="193.5" class="st1" width="32.5" height="29.5"/>
<rect x="138.5" y="193.5" class="st1" width="32.5" height="29.5"/>
<rect x="178.5" y="193.5" class="st1" width="32.5" height="29.5"/>
<rect x="218" y="193.5" class="st1" width="32.5" height="29.5"/>
<rect x="257.5" y="193.5" class="st1" width="32.5" height="29.5"/>
<rect x="296.3" y="193.5" class="st1" width="32.5" height="29.5"/>
<rect x="60.3" y="228.5" class="st1" width="32.5" height="29.5"/>
<rect x="99" y="228.5" class="st1" width="32.5" height="29.5"/>
<rect x="138.5" y="228.5" class="st1" width="32.5" height="29.5"/>
<rect x="178.5" y="228.5" class="st1" width="32.5" height="29.5"/>
<rect x="218" y="228.5" class="st2" width="32.5" height="29.5"/>
<rect x="257.5" y="228.5" class="st2" width="32.5" height="29.5"/>
<rect x="296.3" y="228.5" class="st2" width="32.5" height="29.5"/>
<rect x="60.5" y="263.5" class="st1" width="32.5" height="29.5"/>
<rect x="99.3" y="263.5" class="st1" width="32.5" height="29.5"/>
<rect x="138.8" y="263.5" class="st1" width="32.5" height="29.5"/>
<rect x="178.8" y="263.5" class="st1" width="32.5" height="29.5"/>
<path class="st3" d="M334.8,74.7h-279c-6.6,0-12-5.4-12-12V34c0-6.6,5.4-12,12-12h279c6.6,0,12,5.4,12,12v28.7
	C346.8,69.3,341.4,74.7,334.8,74.7z"/>
<rect x="43.8" y="62.7" class="st3" width="303" height="31.3"/>
<g>
	<path class="st4" d="M101.1,44h-4.3c-2.1,0-3.7-1.7-3.7-3.7V3.8c0-2.1,1.7-3.8,3.7-3.8h4.3c2.1,0,3.7,1.7,3.7,3.8v36.5
		C104.9,42.3,103.2,44,101.1,44z"/>
	<path class="st1" d="M99,36L99,36c-2.1,0-3.8-1.7-3.8-3.7V11.8C95.2,9.7,96.9,8,99,8l0,0c2.1,0,3.8,1.7,3.8,3.8v20.5
		C102.8,34.3,101.1,36,99,36z"/>
</g>
<g>
	<path class="st4" d="M295.1,46h-4.3c-2.1,0-3.8-1.7-3.8-3.7V5.8c0-2.1,1.7-3.8,3.8-3.8h4.3c2.1,0,3.8,1.7,3.8,3.8v36.5
		C298.9,44.3,297.2,46,295.1,46z"/>
	<path class="st1" d="M293,38L293,38c-2.1,0-3.8-1.7-3.8-3.7V13.8c0-2.1,1.7-3.8,3.8-3.8l0,0c2.1,0,3.8,1.7,3.8,3.8v20.5
		C296.8,36.3,295.1,38,293,38z"/>
</g>
</svg>
