<?xml version="1.0" encoding="utf-8"?>
<!-- Generator: Adobe Illustrator 21.0.2, SVG Export Plug-In . SVG Version: 6.00 Build 0)  -->
<svg version="1.1" id="Calque_1" xmlns="http://www.w3.org/2000/svg" xmlns:xlink="http://www.w3.org/1999/xlink" x="0px" y="0px"
	 viewBox="0 0 595.3 255" style="enable-background:new 0 0 595.3 255;" xml:space="preserve">
<style type="text/css">
	.st0{fill:#FFFFFF;}
</style>
<path d="M123,187.9c59.7-0.7,205.3,0,267,0c5.7-0.3,10,9,0,11.3c-61.3,0.7-204.7-0.7-267,0C115.7,196.9,115,189.9,123,187.9z"/>
<path d="M147,196.5c48.4-0.5,166.7,0,216.8,0c4.6-0.2,8.1,6.9,0,8.7c-49.8,0.5-166.2-0.5-216.8,0C141,203.4,140.5,198,147,196.5z"/>
<path d="M154.7,181.9c69.7,0.2,173.7,1.7,210.3,0c5.7-55.3-50.3-102.2-103-102C199.3,81.6,147.3,136.6,154.7,181.9z"/>
<path d="M267,73.9h-15.3c-5.7,0-10.3-4.6-10.3-10.3v0c0-5.7,4.6-10.3,10.3-10.3H267c5.7,0,10.3,4.6,10.3,10.3v0
	C277.3,69.3,272.7,73.9,267,73.9z"/>
<path class="st0" d="M243.8,90.7c-45,2-69,40.6-72.5,78c0,5.8,5.8,8.3,7.8,0c0-56.2,47-68.5,64.8-71
	C253.3,96.4,248.4,89.6,243.8,90.7z"/>
<path class="st0" d="M250.1,69.9L250.1,69.9c-1.6,0-2.9-1.3-2.9-2.9v-6.8c0-1.6,1.3-2.9,2.9-2.9l0,0c1.6,0,2.9,1.3,2.9,2.9V67
	C253,68.6,251.7,69.9,250.1,69.9z"/>
</svg>
