<?xml version="1.0" encoding="utf-8"?>
<!-- Generator: Adobe Illustrator 21.0.2, SVG Export Plug-In . SVG Version: 6.00 Build 0)  -->
<svg version="1.1" id="Calque_1" xmlns="http://www.w3.org/2000/svg" xmlns:xlink="http://www.w3.org/1999/xlink" x="0px" y="0px"
	 viewBox="0 0 595.3 841.9" style="enable-background:new 0 0 595.3 841.9;" xml:space="preserve">
<style type="text/css">
	.st0{fill:#77ABB7;}
	.st1{fill:#FFFFFF;}
	.st2{fill:#04536C;}
	.st3{fill:#F2F2F2;}
</style>
<g>
	<polygon class="st0" points="177.7,264.3 149.7,362 183.7,362 166.7,419.6 293.9,603.3 418.8,416.7 401.7,360.7 437.7,360 
		410.4,267.4 297.8,334.7 	"/>
	<path class="st1" d="M418.8,248c-31.3,69.3-125.3,324-125.3,324s-98-261.3-122-324c47.3,33.3,120.7,52.7,120.7,52.7
		S403.5,269.3,418.8,248z"/>
	<polygon class="st2" points="267.5,321.3 286.8,362 258.3,478.4 293.5,572 329.5,475.3 297.8,361.3 320.8,321.3 292.1,300.7 	"/>
	<polygon class="st3" points="215.7,362.7 257.7,475.3 288.3,362.7 268.3,320 	"/>
	<polygon class="st3" points="373.2,360.7 329.5,475.3 297.8,361.3 320.8,321.3 	"/>
</g>
</svg>
