<?xml version="1.0" encoding="utf-8"?>
<!-- Generator: Adobe Illustrator 21.0.2, SVG Export Plug-In . SVG Version: 6.00 Build 0)  -->
<svg version="1.1" id="Calque_1" xmlns="http://www.w3.org/2000/svg" xmlns:xlink="http://www.w3.org/1999/xlink" x="0px" y="0px"
	 viewBox="0 0 595.3 280" style="enable-background:new 0 0 595.3 280;" xml:space="preserve">
<style type="text/css">
	.st0{fill:#1D3E53;}
	.st1{fill:#04536C;}
	.st2{fill:#FFFFFF;}
	.st3{font-family:'MyriadPro-Regular';}
	.st4{font-size:31.2442px;}
	.st5{fill:none;stroke:#01002A;stroke-miterlimit:10;}
</style>
<polygon class="st0" points="224.7,75.8 384.3,75.8 369,238.1 305.1,256.1 238,238.4 "/>
<polygon class="st1" points="304.5,89.1 369.3,89.1 358.7,228.4 304.5,243.1 "/>
<path class="st2" d="M351,108.1v21h-77.3v19.7H348c0,0,1,45.7-1.7,59c-17,11.3-67,13.3-86,2.3c-1-7,0-31.3,0-31.3h18.3
	c0,0-0.9,11.7,0.3,15.3c12.9,5.4,35.2,4.9,44.7,0.3c3.9-4.6,0.7-24,0.7-24l-67-1.4v-59.6L351,108.1z"/>
<text transform="matrix(1 0 0 1 261.3333 66.6333)" class="st3 st4">HTML</text>
<text transform="matrix(1 0 0 1 261.3333 66.6333)" class="st5 st3 st4">HTML</text>
</svg>
