<?xml version="1.0" encoding="utf-8"?>
<!-- Generator: Adobe Illustrator 21.0.2, SVG Export Plug-In . SVG Version: 6.00 Build 0)  -->
<svg version="1.1" id="Capa_1" xmlns="http://www.w3.org/2000/svg" xmlns:xlink="http://www.w3.org/1999/xlink" x="0px" y="0px"
	 viewBox="0 0 613 445.1" style="enable-background:new 0 0 613 445.1;" xml:space="preserve">
<g>
	<path d="M110.3,124.6c0-26.7,21.7-48.5,48.5-48.5h108.8c16.9,0,31.8,8.7,40.5,21.8c8.7-13.1,23.6-21.8,40.5-21.8h108.8
		c26.7,0,48.5,21.7,48.5,48.5v2.2h12.1V79.6c0-29.3-23.9-53.2-53.2-53.2H151.3c-29.3,0-53.2,23.9-53.2,53.2v47.3h12.1L110.3,124.6
		L110.3,124.6z"/>
	<path d="M543.6,149.5H72.4c-11.2,0-20.4,9.1-20.4,20.4v118.2c0,11.2,9.1,20.4,20.4,20.4h8.5l-10,28.3c-2.1,5.9,1,12.4,6.9,14.4
		c1.2,0.4,2.5,0.7,3.8,0.7c4.7,0,9-2.9,10.7-7.5l12.7-35.8h406.3l12.7,35.8c1.6,4.6,6,7.5,10.7,7.5c1.3,0,2.5-0.2,3.8-0.7
		c5.9-2.1,9-8.6,6.9-14.4l-10-28.3h8.5c11.2,0,20.4-9.1,20.4-20.4V169.8C564,158.6,554.9,149.5,543.6,149.5z"/>
	<path d="M348.5,98.8c-14.2,0-25.8,11.6-25.8,25.8v2.2h160.4v-2.2c0-14.2-11.6-25.8-25.8-25.8H348.5z"/>
	<path d="M158.8,98.8c-14.2,0-25.8,11.6-25.8,25.8v2.2h160.4v-2.2c0-14.2-11.6-25.8-25.8-25.8H158.8z"/>
</g>
</svg>
