<?xml version="1.0" encoding="utf-8"?>
<!-- Generator: Adobe Illustrator 21.0.2, SVG Export Plug-In . SVG Version: 6.00 Build 0)  -->
<svg version="1.1" id="Calque_1" xmlns="http://www.w3.org/2000/svg" xmlns:xlink="http://www.w3.org/1999/xlink" x="0px" y="0px"
	 viewBox="0 0 595.3 229" style="enable-background:new 0 0 595.3 229;" xml:space="preserve">
<style type="text/css">
	.st0{fill:#1D1D1B;stroke:#1D1D1B;stroke-miterlimit:10;}
	.st1{fill:#FFFFFF;}
	.st2{fill:#1D1D1B;}
</style>
<g>
	<path class="st0" d="M222.7,43.4H374c0,0,24.6-1.1,22.7,29c-1.9,30.2,1.6,60.1,0.1,79.9c-0.6,7.2-3.5,18.2-23,17.4
		c-19.5-0.8-151.1,0.1-151.1,0.1s-22,3.1-23.5-24.4c-1.5-27.5,0-74.9,0-74.9S196.5,43.4,222.7,43.4z"/>
	<rect x="199.6" y="80.9" class="st1" width="194.9" height="10"/>
	<rect x="359.5" y="60.9" class="st1" width="25" height="15"/>
	<rect x="214.6" y="25.9" class="st2" width="35" height="15"/>
	<ellipse class="st1" cx="297.5" cy="103.7" rx="39.4" ry="39.4"/>
	<circle class="st0" cx="297.3" cy="103.5" r="29.9"/>
	<path class="st1" d="M284.4,88.8c-4.6,3.4-8,7.1-7.6,21.6c0.1,3.1-4.2,0.2-3.6,0c0.6-0.2-2.9-18.2,10.5-25.9
		C287.5,82.2,287.5,86.5,284.4,88.8z"/>
</g>
</svg>
