<?xml version="1.0" encoding="utf-8"?>
<!-- Generator: Adobe Illustrator 21.0.2, SVG Export Plug-In . SVG Version: 6.00 Build 0)  -->
<svg version="1.1" id="Calque_1" xmlns="http://www.w3.org/2000/svg" xmlns:xlink="http://www.w3.org/1999/xlink" x="0px" y="0px"
	 viewBox="0 0 595.3 479.9" style="enable-background:new 0 0 595.3 479.9;" xml:space="preserve">
<style type="text/css">
	.st0{fill:#FFFFFF;}
</style>
<g>
	<circle cx="191.2" cy="127.8" r="35.3"/>
	<circle cx="297.6" cy="119" r="44.1"/>
	<path d="M350.6,197.8c0,0-1.4-16.6-17.3-16.6c-36.2-1-116.6-2.3-157.1,0c-9.5,0-20.3,3.5-20.3,19.3c0,28.2,0,89.3,0,117.5
		c0,9.2,4.2,22.2,16.7,21.2c43.5,2.1,122.4,0.3,160.8,0c7.8-0.3,15.9-4.2,17.3-16.7c0.8-27,0-106.2,0-106.2l-124.1-0.5v-17.6
		L350.6,197.8z"/>
	<circle class="st0" cx="209" cy="286.4" r="16.1"/>
	<path d="M424,173c-10.8,8.2-32.8,24.7-44.6,34.5c-3.7,5.3-9.6,13.1-11.4,23.3c-0.7,13.3-1.8,41.3,0,55.6
		c1.5,6.8,4.2,19.4,10.2,25.8c10.8,8.1,29.5,22.9,43.4,32.8c7.2,4.2,14.5,8.7,17.2-4.7c2.1-37.8-1.5-123,0-159
		C438.7,171.8,433.6,168.6,424,173z"/>
</g>
</svg>
